<svg xmlns="http://www.w3.org/2000/svg" xmlns:xlink="http://www.w3.org/1999/xlink" viewBox="0 0 56.59 56.74"><defs><style>.cls-1,.cls-2{fill-rule:evenodd;}.cls-1{fill:url(#GradientFill_1);}.cls-2{fill:#fff;}</style><linearGradient id="GradientFill_1" x1="6.26" y1="62.29" x2="48.8" y2="-3.21" gradientUnits="userSpaceOnUse"><stop offset="0" stop-color="#164194"/><stop offset="1" stop-color="#83d0f5"/></linearGradient></defs><title>Cafe</title><g id="Шар_2" data-name="Шар 2"><g id="Layer_1" data-name="Layer 1"><path class="cls-1" d="M28.3,0A28.37,28.37,0,1,1,0,28.37,28.36,28.36,0,0,1,28.3,0Z"/><path class="cls-2" d="M41.18,40.61a2.29,2.29,0,0,1-.07.72v-.72Zm-.07-7.49V30.67a3.3,3.3,0,0,0,0-6.48V21.74a5.73,5.73,0,0,1,0,11.38Zm0,8.21a3.33,3.33,0,0,1-3.31,2.73H17.28a3.51,3.51,0,0,1-3.46-3.45H41.11v.72Zm0-19.59v2.45a8.13,8.13,0,0,0-1.37-.14H38.52v6.84h1.22a4,4,0,0,0,1.37-.22v2.45a8.13,8.13,0,0,1-1.37.14H38.52v.58a5,5,0,0,1-5,5H21.74a5,5,0,0,1-5-5V21.67h23a8.48,8.48,0,0,1,1.37.07ZM22.82,18.58l-1.51.86a5.4,5.4,0,0,1,0-6.41c1.44-2.16.65-3-.07-4.61l1.51-.86c1.3,2.23,1.44,4.25,0,6.41s-.65,3.17.07,4.61Zm12.17,0-1.51.86a5.4,5.4,0,0,1,0-6.41c1.44-2.16.65-3-.07-4.61l1.51-.86c1.3,2.23,1.44,4.25,0,6.41s-.65,3.17.07,4.61Zm-6.12,0-1.44.86a5.4,5.4,0,0,1,0-6.41c1.37-2.16.65-3-.07-4.61l1.44-.86c1.3,2.23,1.44,4.25,0,6.41S28.22,17.14,28.87,18.58Z"/></g></g></svg>