<svg xmlns="http://www.w3.org/2000/svg" xmlns:xlink="http://www.w3.org/1999/xlink" viewBox="0 0 56.74 56.74"><defs><style>.cls-1{fill-rule:evenodd;fill:url(#GradientFill_1);}.cls-2{fill:none;}.cls-3{fill:#fff;}</style><linearGradient id="GradientFill_1" x1="6.25" y1="62.41" x2="48.8" y2="-3.1" gradientUnits="userSpaceOnUse"><stop offset="0" stop-color="#164194"/><stop offset="1" stop-color="#83d0f5"/></linearGradient></defs><title>Hotel</title><g id="Шар_2" data-name="Шар 2"><g id="Layer_1" data-name="Layer 1"><path class="cls-1" d="M28.37,0A28.37,28.37,0,1,1,0,28.37,28.43,28.43,0,0,1,28.37,0Z"/><path class="cls-2" d="M24.41,33.26H17.64V26.64a1.44,1.44,0,0,0-2.88,0V40h2.88V36.07H38.88V40h2.88V30.53a1.4,1.4,0,0,0-1.58-1.44H24.41Z"/><path class="cls-2" d="M20.88,32.4a2.27,2.27,0,1,0-2.3-2.3A2.26,2.26,0,0,0,20.88,32.4Z"/><polygon class="cls-3" points="28.37 5.69 20.88 11.16 8.64 20.16 9.65 21.53 20.88 13.32 28.37 7.78 47.09 21.53 48.1 20.16 28.37 5.69"/><path class="cls-3" d="M20.88,15.19l-9.07,6.63V43.13H44.93V21.82L28.37,9.65Zm0,12.67a2.27,2.27,0,1,1-2.3,2.24A2.25,2.25,0,0,1,20.88,27.86Zm20.88,2.67V40H38.88V36.07H17.64V40H14.76V26.64a1.44,1.44,0,0,1,2.88,0v6.62h6.77V29.09H40.18A1.4,1.4,0,0,1,41.76,30.53Z"/></g></g></svg>