<svg xmlns="http://www.w3.org/2000/svg" xmlns:xlink="http://www.w3.org/1999/xlink" viewBox="0 0 56.74 56.74"><defs><style>.cls-1,.cls-2{fill-rule:evenodd;}.cls-1{fill:url(#GradientFill_1);}.cls-2{fill:#fff;}</style><linearGradient id="GradientFill_1" x1="6.13" y1="62.6" x2="48.68" y2="-2.92" gradientUnits="userSpaceOnUse"><stop offset="0" stop-color="#164194"/><stop offset="1" stop-color="#83d0f5"/></linearGradient></defs><title>Restaurant</title><g id="Шар_2" data-name="Шар 2"><g id="Layer_1" data-name="Layer 1"><path class="cls-1" d="M28.37,0A28.37,28.37,0,1,1,0,28.37,28.43,28.43,0,0,1,28.37,0Z"/><path class="cls-2" d="M24.62,7.92a.94.94,0,0,1,1.88,0V19.15a3.51,3.51,0,0,1-3.32,3.75l.87,24.62a2.2,2.2,0,0,1-2.23,2.23,2.31,2.31,0,0,1-2.31-2.23l.94-24.62a3.5,3.5,0,0,1-3.31-3.75V7.92a.94.94,0,0,1,1.87,0v9h1.87v-9a.94.94,0,0,1,1.87,0v9h1.87Z"/><path class="cls-2" d="M38.23,7.06c1-.29,1.37.14,1.37.86v40a1.91,1.91,0,0,1-3.82,0V31.82a3.47,3.47,0,0,1-3.38-3.6v-11C32.4,11.66,35.64,7.92,38.23,7.06Z"/></g></g></svg>