<svg xmlns="http://www.w3.org/2000/svg" xmlns:xlink="http://www.w3.org/1999/xlink" viewBox="0 0 56.74 56.66"><defs><style>.cls-1{fill-rule:evenodd;fill:url(#GradientFill_1);}.cls-2{fill:none;}.cls-3{fill:#fff;}</style><linearGradient id="GradientFill_1" x1="6.09" y1="62.66" x2="48.63" y2="-2.84" gradientUnits="userSpaceOnUse"><stop offset="0" stop-color="#164194"/><stop offset="1" stop-color="#83d0f5"/></linearGradient></defs><title>Sanatorium</title><g id="Шар_2" data-name="Шар 2"><g id="Layer_1" data-name="Layer 1"><path class="cls-1" d="M28.37,0A28.33,28.33,0,1,1,0,28.37,28.34,28.34,0,0,1,28.37,0Z"/><polygon class="cls-2" points="26.57 19.15 28.37 19.15 30.17 19.15 30.17 15.48 33.84 15.48 33.84 11.88 30.17 11.88 30.17 8.21 28.37 8.21 26.57 8.21 26.57 11.88 22.9 11.88 22.9 15.48 26.57 15.48 26.57 19.15"/><path class="cls-3" d="M21.46,22.1H35.28a1.52,1.52,0,0,0,1.51-1.51V6.77a1.52,1.52,0,0,0-1.51-1.51H21.46a1.57,1.57,0,0,0-1.52,1.51V20.59A1.57,1.57,0,0,0,21.46,22.1ZM22.9,11.88h3.67V8.21h3.6v3.67h3.67v3.6H30.17v3.67h-3.6V15.48H22.9Z"/><polygon class="cls-3" points="16.78 32.18 19.66 32.18 22.46 32.18 22.46 26.14 19.66 26.14 16.78 26.14 16.78 32.18"/><polygon class="cls-3" points="16.78 35.28 16.78 41.33 19.66 41.33 22.46 41.33 22.46 35.28 19.66 35.28 16.78 35.28"/><polygon class="cls-3" points="39.96 26.14 37.15 26.14 34.27 26.14 34.27 32.18 37.15 32.18 39.96 32.18 39.96 26.14"/><polygon class="cls-3" points="38.66 12.74 38.66 14.4 43.56 14.4 43.56 45.72 37.15 45.72 31.18 45.72 31.18 35.28 28.37 35.28 25.56 35.28 25.56 45.72 19.66 45.72 13.18 45.72 13.18 14.4 18.36 14.4 18.36 12.74 11.52 12.74 11.52 47.45 19.66 47.45 28.37 47.45 37.15 47.45 45.22 47.45 45.22 12.74 38.66 12.74"/><polygon class="cls-3" points="25.56 26.14 25.56 32.18 28.37 32.18 31.18 32.18 31.18 26.14 28.37 26.14 25.56 26.14"/><polygon class="cls-3" points="34.27 35.28 34.27 41.33 37.15 41.33 39.96 41.33 39.96 35.28 37.15 35.28 34.27 35.28"/></g></g></svg>